HIERARCHY
ROOT hip
{
  OFFSET 0 0 0
  CHANNELS 6 Xposition Yposition Zposition Zrotation Yrotation Xrotation
  JOINT abdomen
  {
    OFFSET 0 20.6881 -0.73152
    CHANNELS 3 Zrotation Xrotation Yrotation
    JOINT chest
    {
      OFFSET 0 11.7043 -0.48768
      CHANNELS 3 Zrotation Xrotation Yrotation
      JOINT neck
      {
        OFFSET 0 22.1894 -2.19456
        CHANNELS 3 Zrotation Xrotation Yrotation
        JOINT head
        {
          OFFSET -0.24384 7.07133 1.2192
          CHANNELS 3 Zrotation Xrotation Yrotation
          JOINT leftEye
          {
            OFFSET 4.14528 8.04674 8.04672
            CHANNELS 3 Zrotation Xrotation Yrotation
            End Site
            {
              OFFSET 1 0 0
            }
          }
          JOINT rightEye
          {
            OFFSET -3.6576 8.04674 8.04672
            CHANNELS 3 Zrotation Xrotation Yrotation
            End Site
            {
              OFFSET 1 0 0
            }
          }
        }
      }
      JOINT rCollar
      {
        OFFSET -2.68224 19.2634 -4.8768
        CHANNELS 3 Zrotation Xrotation Yrotation
        JOINT rShldr
        {
          OFFSET -8.77824 -1.95073 1.46304
          CHANNELS 3 Zrotation Xrotation Yrotation
          JOINT rForeArm
          {
            OFFSET -28.1742 -1.7115 0.48768
            CHANNELS 3 Zrotation Xrotation Yrotation
            JOINT rHand
            {
              OFFSET -22.5879 0.773209 7.07136
              CHANNELS 3 Zrotation Xrotation Yrotation
              JOINT rThumb1
              {
                OFFSET -1.2192 -0.487915 3.41376
                CHANNELS 3 Zrotation Xrotation Yrotation
                JOINT rThumb2
                {
                  OFFSET -3.37035 -0.52449 3.41376
                  CHANNELS 3 Zrotation Xrotation Yrotation
                  End Site
                  {
                    OFFSET -1.78271 -1.18214 1.43049
                  }
                }
              }
              JOINT rIndex1
              {
                OFFSET -7.75947 0.938293 5.60832
                CHANNELS 3 Zrotation Xrotation Yrotation
                JOINT rIndex2
                {
                  OFFSET -2.54057 -0.884171 1.56538
                  CHANNELS 3 Zrotation Xrotation Yrotation
                  End Site
                  {
                    OFFSET -1.62519 -0.234802 1.16502
                  }
                }
              }
              JOINT rMid1
              {
                OFFSET -8.24714 1.18213 3.41376
                CHANNELS 3 Zrotation Xrotation Yrotation
                JOINT rMid2
                {
                  OFFSET -3.10165 -0.590103 1.0647
                  CHANNELS 3 Zrotation Xrotation Yrotation
                  End Site
                  {
                    OFFSET -2.48547 -0.328903 0.83742
                  }
                }
              }
              JOINT rRing1
              {
                OFFSET -8.82822 0.546677 1.51678
                CHANNELS 3 Zrotation Xrotation Yrotation
                JOINT rRing2
                {
                  OFFSET -2.60934 -0.819778 -0.0198488
                  CHANNELS 3 Zrotation Xrotation Yrotation
                  End Site
                  {
                    OFFSET -2.33842 -0.294052 0.168128
                  }
                }
              }
              JOINT rPinky1
              {
                OFFSET -8.27202 -0.0477905 -0.4584
                CHANNELS 3 Zrotation Xrotation Yrotation
                JOINT rPinky2
                {
                  OFFSET -1.82734 -0.647385 -0.700984
                  CHANNELS 3 Zrotation Xrotation Yrotation
                  End Site
                  {
                    OFFSET -1.69225 -0.51767 -0.607171
                  }
                }
              }
            }
          }
        }
      }
      JOINT lCollar
      {
        OFFSET 2.68224 19.2634 -4.8768
        CHANNELS 3 Zrotation Xrotation Yrotation
        JOINT lShldr
        {
          OFFSET 8.77824 -1.95073 1.46304
          CHANNELS 3 Zrotation Xrotation Yrotation
          JOINT lForeArm
          {
            OFFSET 28.1742 -1.7115 0.48768
            CHANNELS 3 Zrotation Xrotation Yrotation
            JOINT lHand
            {
              OFFSET 22.5879 0.773209 7.07136
              CHANNELS 3 Zrotation Xrotation Yrotation
              JOINT lThumb1
              {
                OFFSET 1.2192 -0.487915 3.41376
                CHANNELS 3 Zrotation Xrotation Yrotation
                JOINT lThumb2
                {
                  OFFSET 3.37035 -0.52449 3.41376
                  CHANNELS 3 Zrotation Xrotation Yrotation
                  End Site
                  {
                    OFFSET 1.78271 -1.18214 1.43049
                  }
                }
              }
              JOINT lIndex1
              {
                OFFSET 7.75947 0.938293 5.60832
                CHANNELS 3 Zrotation Xrotation Yrotation
                JOINT lIndex2
                {
                  OFFSET 2.54057 -0.884171 1.56538
                  CHANNELS 3 Zrotation Xrotation Yrotation
                  End Site
                  {
                    OFFSET 1.62519 -0.234802 1.16502
                  }
                }
              }
              JOINT lMid1
              {
                OFFSET 8.24714 1.18213 3.41376
                CHANNELS 3 Zrotation Xrotation Yrotation
                JOINT lMid2
                {
                  OFFSET 3.10165 -0.590103 1.0647
                  CHANNELS 3 Zrotation Xrotation Yrotation
                  End Site
                  {
                    OFFSET 2.48547 -0.328903 0.83742
                  }
                }
              }
              JOINT lRing1
              {
                OFFSET 8.82822 0.546677 1.51678
                CHANNELS 3 Zrotation Xrotation Yrotation
                JOINT lRing2
                {
                  OFFSET 2.60934 -0.819778 -0.0198488
                  CHANNELS 3 Zrotation Xrotation Yrotation
                  End Site
                  {
                    OFFSET 2.33842 -0.294052 0.168128
                  }
                }
              }
              JOINT lPinky1
              {
                OFFSET 8.27202 -0.0477905 -0.4584
                CHANNELS 3 Zrotation Xrotation Yrotation
                JOINT lPinky2
                {
                  OFFSET 1.82734 -0.647385 -0.700984
                  CHANNELS 3 Zrotation Xrotation Yrotation
                  End Site
                  {
                    OFFSET 1.69225 -0.51767 -0.607171
                  }
                }
              }
            }
          }
        }
      }
    }
  }
  JOINT rButtock
  {
    OFFSET -8.77824 4.35084 1.2192
    CHANNELS 3 Zrotation Xrotation Yrotation
    JOINT rThigh
    {
      OFFSET 0 -1.70687 -2.19456
      CHANNELS 3 Zrotation Xrotation Yrotation
      JOINT rShin
      {
        OFFSET 0 -36.8199 0.73152
        CHANNELS 3 Zrotation Xrotation Yrotation
        JOINT rFoot
        {
          OFFSET 0.73152 -45.1104 -5.12064
          CHANNELS 3 Zrotation Xrotation Yrotation
          End Site
          {
            OFFSET -1.1221 -3.69964 12.103
          }
        }
      }
    }
  }
  JOINT lButtock
  {
    OFFSET 8.77824 4.35084 1.2192
    CHANNELS 3 Zrotation Xrotation Yrotation
    JOINT lThigh
    {
      OFFSET 0 -1.70687 -2.19456
      CHANNELS 3 Zrotation Xrotation Yrotation
      JOINT lShin
      {
        OFFSET 0 -36.8199 0.73152
        CHANNELS 3 Zrotation Xrotation Yrotation
        JOINT lFoot
        {
          OFFSET -0.73152 -45.1104 -5.12064
          CHANNELS 3 Zrotation Xrotation Yrotation
          End Site
          {
            OFFSET 1.1221 -3.69964 12.103
          }
        }
      }
    }
  }
}
MOTION
Frames:	5
Frame Time:	0.03333
0.0 0.0 0.0 0.0 0.0 0.0 0.0 0.0 0.0 0.0 0.0 0.0 0.0 0.0 0.0 0.0 0.0 0.0 0.0 0.0 0.0 0.0 0.0 0.0 0.0 0.0 0.0 0.0 0.0 0.0 0.0 0.0 0.0 0.0 0.0 0.0 0.0 0.0 0.0 0.0 0.0 0.0 0.0 0.0 0.0 0.0 0.0 0.0 0.0 0.0 0.0 0.0 0.0 0.0 0.0 0.0 0.0 0.0 0.0 0.0 0.0 0.0 0.0 0.0 0.0 0.0 0.0 0.0 0.0 0.0 0.0 0.0 0.0 0.0 0.0 0.0 0.0 0.0 0.0 0.0 0.0 0.0 0.0 0.0 0.0 0.0 0.0 0.0 0.0 0.0 0.0 0.0 0.0 0.0 0.0 0.0 0.0 0.0 0.0 0.0 0.0 0.0 0.0 0.0 0.0 0.0 0.0 0.0 0.0 0.0 0.0 0.0 0.0 0.0 0.0 0.0 0.0 0.0 0.0 0.0 0.0 0.0 0.0 0.0 0.0 0.0 0.0 0.0 0.0 0.0 0.0 0.0
-1.609 65.9165 -1.6398 -7.77426 -52.29037 13.09141 7.36292 16.924154 -31.9945 9.202866 -7.382477 28.978194 10.870397 15.943027 66.752816 -33.26082 -2.126127 -45.960207 0.003279 -0.0 -0.004637 -0.001912 -0.0 0.003787 -143.927668 -81.968093 -167.333514 79.646297 49.455946 -95.963179 -27.579036 12.042554 126.871458 1.205462 -52.682687 -6.701934 62.668317 -45.755785 19.818249 -151.117855 -21.553303 125.629605 57.67526 -69.613686 13.481424 -82.569281 51.826054 69.21945 -38.921778 53.193171 32.53411 23.342934 -51.850016 2.434682 -0.230528 -7.85732 -2.490533 -155.576911 -16.538822 173.859987 1.373216 3.697052 1.261828 -150.633302 22.890642 -146.091475 -1.618961 -11.049092 2.299637 -81.820192 11.264499 -63.142987 -13.526087 25.234577 -33.94043 17.442557 63.551294 -10.980525 142.399329 17.712458 -83.195159 -61.785712 -54.189682 -44.089138 140.437945 1.897153 -116.038729 171.074014 -30.282948 -117.978728 -17.094937 -49.874826 2.068519 165.769593 -11.948998 -143.880371 0.049077 -3.010468 0.947421 134.810341 65.839548 -149.040225 176.887522 84.691271 140.860824 160.87857 51.946171 148.011603 -179.999461 75.749004 -0.000139 173.036897 43.482948 -168.844688 -59.359021 -73.697488 -138.910608 -39.239195 15.131954 -83.905755 0.000321 0.000638 -3e-05 23.927264 -76.217683 -107.133778 -77.819375 -22.927933 -122.79245 -66.62515 -12.268052 175.482055
-2.5927 66.3848 -2.4165 -7.210421 -44.128258 11.449173 7.078259 11.911472 159.687538 -7.147357 4.125987 -165.023624 13.05173 24.383559 113.0079 -34.585928 26.93676 -88.686709 0.002617 0.0 0.001691 -0.003027 0.0 -0.001111 -155.253425 -1.905853 161.493688 -72.635781 38.676377 24.661353 172.882988 19.016359 -56.891585 -14.076955 8.55024 -0.939692 63.652401 -46.067655 20.441842 -41.654559 25.050082 8.003811 160.050713 -69.837461 102.723357 0.516728 25.223426 -0.778956 -18.648021 37.247036 14.060038 -123.352139 55.422742 113.219302 -143.980076 21.159267 173.920689 9.798872 21.217976 -6.184051 -137.716876 -7.869167 -134.977708 18.598589 47.699851 6.343712 159.130384 -53.883976 -171.770143 175.510129 30.968635 103.663516 -171.820284 28.282131 -108.02155 -152.83313 -36.221332 -140.198147 -167.804771 -28.049188 -86.208895 -72.892095 -78.301618 -53.672082 16.110982 21.172048 -10.994295 129.029606 29.788933 -97.95061 132.544378 44.746838 -121.597312 7.830962 27.182553 -6.739873 0.053338 -3.230878 1.016077 156.297889 -37.428376 -176.310953 151.023201 32.742087 146.708946 92.715099 -50.609024 91.490385 0.009362 -0.00069 0.00589 -2.293071 -24.350258 35.289937 62.680119 53.390101 -139.412959 33.399375 -46.953575 87.712513 -0.006708 -3.2e-05 -0.004791 12.232832 -77.993862 -169.804416 -14.941999 -67.613275 115.784138 50.11977 28.112097 -1.839432
-3.2674000000000003 66.57499999999999 -2.8326000000000002 -9.487579 -37.708511 11.868584 9.474309 15.487889 4.64987 2.694757 -10.976587 -8.925559 -8.331658 24.323542 -87.238414 40.259394 6.622523 96.174685 -0.000475 -0.0 0.00349 -0.000433 -0.0 0.000272 -125.179946 58.146106 128.90912 80.146854 -23.757751 94.886211 -144.831165 -24.698492 23.256728 168.763454 -48.394351 141.497077 173.211128 -23.602906 87.847439 -25.642586 -38.720998 -6.176 -163.370668 -38.665449 122.592337 2.228449 20.580084 -4.814625 -160.932131 -7.469736 143.364743 -142.416791 39.470003 129.738686 -145.118762 0.059964 -179.147242 -150.790608 -33.183905 -173.525539 12.578862 42.71997 10.496909 -9.447885 -23.647629 -10.277281 158.025385 -24.594041 -165.922837 -109.921793 22.858021 106.941134 -41.476937 20.81516 -29.390236 48.929385 75.380825 -34.981091 -158.12193 -34.908639 -82.311712 -161.710141 -53.519948 -117.64847 -44.833991 -63.591141 -4.003738 -18.204427 -2.474796 4.938338 159.188048 -2.152591 -142.504554 134.352493 47.788921 -122.894465 145.102085 -1.311939 178.716067 -12.082726 31.34457 5.447472 -2.84115 7.931887 -2.595064 164.469437 67.805815 149.420183 0.000313 -0.000183 -0.000435 2.860511 -20.225691 19.755679 59.258613 56.251078 50.492789 -76.39488 -46.255036 -128.956155 -179.958939 75.748801 -0.029999 -178.843197 -1.561392 49.541887 67.530575 32.715174 -150.778646 133.12308 12.997876 -70.496939
-3.8331999999999997 66.70270000000001 -2.8439 -10.02247 -34.47226 11.640574 9.697098 13.437721 45.297502 -4.734981 -9.74812 -45.889148 12.027424 20.559184 86.472864 -34.204414 7.618833 -81.615694 -0.002997 -0.0 0.00236 0.002676 0.0 0.001944 -155.606552 -4.189158 161.980928 -52.461904 -6.494778 0.153265 7.594035 6.452025 -165.349322 -173.26968 7.072648 141.551094 -129.666703 26.140982 76.816093 -141.594982 -11.968936 71.05779 -120.972785 25.429812 102.16338 -142.120545 25.24545 109.298268 -163.517506 -15.672236 144.392318 -18.390251 42.215787 14.946951 -0.002352 -0.155642 -0.047549 9.209705 13.078946 1.714875 -30.664625 -41.619652 -29.637143 -165.791541 70.175709 -147.860568 -3.772198 -33.702134 6.515477 -86.296338 8.549549 -12.89846 -161.032042 -46.736918 -71.754211 -177.744755 -3.272187 -143.830644 -0.580591 -0.572666 0.086139 -174.521423 -80.573304 -98.260477 2.964126 4.649046 -1.754801 170.224379 -24.77202 -108.975554 100.583471 59.218046 -91.578763 2.683531 16.380532 -3.275459 145.10995 -0.751972 178.892052 71.939166 -78.004644 93.514874 9.086096 -19.09355 8.585981 155.893296 44.174303 149.17631 179.999088 75.748592 0.000615 -167.253991 56.75199 44.835105 66.997068 21.744102 10.250887 -45.626067 -23.438563 -87.66638 0.000528 0.00105 0.000504 16.674785 -80.042997 -175.020637 -30.220314 -76.327518 -149.501522 -144.848743 -13.401484 61.707741
